<svg xmlns="http://www.w3.org/2000/svg" id="Layer_1" viewBox="0 0 180 64"><defs><style>.cls-1{fill:#fff;}.cls-2{fill:#333;}</style></defs><rect class="cls-2" width="180" height="64" rx="12" ry="12" shape-rendering="crispEdges"></rect><path class="cls-1" d="M39.88,21.01c-.05-.05-1.73.02-3.2,1.61-1.47,1.59-1.24,3.41-1.21,3.46.03.05,2.09.12,3.4-1.73,1.31-1.85,1.05-3.29,1-3.34ZM44.43,37.14c-.07-.13-3.2-1.7-2.91-4.71.29-3.01,2.3-3.83,2.33-3.92s-.82-1.09-1.72-1.59c-.66-.36-1.4-.56-2.15-.6-.15,0-.66-.13-1.72.16-.7.19-2.27.81-2.71.83-.43.02-1.73-.72-3.12-.91-.89-.17-1.83.18-2.51.45-.67.27-1.96,1.04-2.85,3.08-.9,2.04-.43,5.27-.09,6.27.34,1,.86,2.65,1.75,3.84.79,1.35,1.84,2.29,2.28,2.61.44.32,1.68.53,2.53.09.69-.42,1.94-.67,2.43-.65.49.02,1.46.21,2.45.74.79.27,1.53.16,2.27-.14.74-.3,1.82-1.46,3.08-3.79.48-1.09.69-1.67.65-1.76Z"></path><path class="cls-1" d="M39.88,21.01c-.05-.05-1.73.02-3.2,1.61-1.47,1.59-1.24,3.41-1.21,3.46.03.05,2.09.12,3.4-1.73,1.31-1.85,1.05-3.29,1-3.34ZM44.43,37.14c-.07-.13-3.2-1.7-2.91-4.71.29-3.01,2.3-3.83,2.33-3.92s-.82-1.09-1.72-1.59c-.66-.36-1.4-.56-2.15-.6-.15,0-.66-.13-1.72.16-.7.19-2.27.81-2.71.83-.43.02-1.73-.72-3.12-.91-.89-.17-1.83.18-2.51.45-.67.27-1.96,1.04-2.85,3.08-.9,2.04-.43,5.27-.09,6.27.34,1,.86,2.65,1.75,3.84.79,1.35,1.84,2.29,2.28,2.61.44.32,1.68.53,2.53.09.69-.42,1.94-.67,2.43-.65.49.02,1.46.21,2.45.74.79.27,1.53.16,2.27-.14.74-.3,1.82-1.46,3.08-3.79.48-1.09.69-1.67.65-1.76Z"></path><path class="cls-1" d="M61.69,22.05c.74,0,1.39.14,1.94.43.56.28.99.69,1.29,1.22.31.53.46,1.14.46,1.85s-.15,1.32-.46,1.84c-.3.52-.73.92-1.29,1.2-.55.27-1.2.41-1.94.41h-2.27v-6.95h2.27ZM61.69,28.07c.81,0,1.44-.22,1.87-.66.43-.44.65-1.06.65-1.86s-.22-1.44-.65-1.89c-.43-.45-1.06-.68-1.87-.68h-1.13v5.09h1.13ZM69.68,29.07c-.65,0-1.24-.15-1.79-.45-.54-.31-.97-.73-1.29-1.27-.31-.55-.47-1.16-.47-1.84s.16-1.29.47-1.83c.32-.54.75-.96,1.29-1.26.55-.31,1.14-.46,1.79-.46s1.25.15,1.79.46c.55.3.98.72,1.29,1.26.31.54.47,1.15.47,1.83s-.16,1.29-.47,1.84c-.31.54-.74.96-1.29,1.27-.54.3-1.14.45-1.79.45ZM69.68,28.08c.46,0,.87-.1,1.23-.31.36-.21.64-.51.84-.9.21-.39.31-.85.31-1.36s-.1-.96-.31-1.35c-.2-.39-.48-.68-.84-.89-.36-.21-.77-.31-1.23-.31s-.87.1-1.23.31c-.36.21-.64.5-.85.89-.2.39-.3.84-.3,1.35s.1.97.3,1.36c.21.39.49.69.85.9.36.21.77.31,1.23.31ZM83.4,22.05l-2.06,6.95h-1.29l-1.46-5.26-1.55,5.26h-1.28s-1.97-6.95-1.97-6.95h1.21l1.44,5.66,1.56-5.66h1.28l1.45,5.63,1.45-5.63h1.22ZM90.05,29h-1.14l-3.43-5.19v5.19h-1.14v-6.96h1.14l3.43,5.18v-5.18h1.14v6.96ZM92.69,28.08h2.35v.92h-3.49v-6.95h1.14v6.03ZM99.16,29.07c-.65,0-1.24-.15-1.79-.45-.54-.31-.97-.73-1.29-1.27-.31-.55-.47-1.16-.47-1.84s.16-1.29.47-1.83c.32-.54.75-.96,1.29-1.26.55-.31,1.14-.46,1.79-.46s1.25.15,1.79.46c.55.3.98.72,1.29,1.26.31.54.47,1.15.47,1.83s-.16,1.29-.47,1.84c-.31.54-.74.96-1.29,1.27-.54.3-1.14.45-1.79.45ZM99.16,28.08c.46,0,.87-.1,1.23-.31.36-.21.64-.51.84-.9.21-.39.31-.85.31-1.36s-.1-.96-.31-1.35c-.2-.39-.48-.68-.84-.89-.36-.21-.77-.31-1.23-.31s-.87.1-1.23.31c-.36.21-.64.5-.85.89-.2.39-.3.84-.3,1.35s.1.97.3,1.36c.21.39.49.69.85.9.36.21.77.31,1.23.31ZM108.02,27.58h-2.91l-.5,1.42h-1.19l2.49-6.96h1.32l2.49,6.96h-1.2l-.5-1.42ZM107.7,26.65l-1.13-3.23-1.14,3.23h2.27ZM113.08,22.05c.74,0,1.39.14,1.94.43.56.28.99.69,1.29,1.22.31.53.46,1.14.46,1.85s-.15,1.32-.46,1.84c-.3.52-.73.92-1.29,1.2-.55.27-1.2.41-1.94.41h-2.27v-6.95h2.27ZM113.08,28.07c.81,0,1.44-.22,1.87-.66.43-.44.65-1.06.65-1.86s-.22-1.44-.65-1.89c-.43-.45-1.06-.68-1.87-.68h-1.13v5.09h1.13ZM123.66,29.07c-.65,0-1.24-.15-1.79-.45-.54-.31-.97-.73-1.29-1.27-.31-.55-.47-1.16-.47-1.84s.16-1.29.47-1.83c.32-.54.75-.96,1.29-1.26.55-.31,1.14-.46,1.79-.46s1.25.15,1.79.46c.55.3.98.72,1.29,1.26.31.54.47,1.15.47,1.83s-.16,1.29-.47,1.84c-.31.54-.74.96-1.29,1.27-.54.3-1.14.45-1.79.45ZM123.66,28.08c.46,0,.87-.1,1.23-.31.36-.21.64-.51.84-.9.21-.39.31-.85.31-1.36s-.1-.96-.31-1.35c-.2-.39-.48-.68-.84-.89-.36-.21-.77-.31-1.23-.31s-.87.1-1.23.31c-.36.21-.64.5-.85.89-.2.39-.3.84-.3,1.35s.1.97.3,1.36c.21.39.49.69.85.9.36.21.77.31,1.23.31ZM134.05,29h-1.14l-3.43-5.19v5.19h-1.14v-6.96h1.14l3.43,5.18v-5.18h1.14v6.96ZM142.63,22.05v.93h-1.85v6.02h-1.14v-6.02h-1.86v-.93h4.85ZM149.34,22.05v6.95h-1.14v-3.04h-3.27v3.04h-1.14v-6.95h1.14v2.98h3.27v-2.98h1.14ZM151.98,22.97v2.04h2.4v.93h-2.4v2.13h2.7v.93h-3.84v-6.96h3.84v.93h-2.7Z"></path><path class="cls-1" d="M66.73,42.87h-4.45l-.74,2.13h-2.35l4.02-11.18h2.61l4.02,11.18h-2.37l-.74-2.13ZM66.12,41.08l-1.62-4.67-1.62,4.67h3.23ZM73.57,37.42c.29-.41.68-.74,1.18-1.01.51-.28,1.09-.42,1.74-.42.76,0,1.44.19,2.05.56.62.37,1.1.91,1.46,1.6.36.68.54,1.48.54,2.38s-.18,1.71-.54,2.42c-.35.69-.84,1.23-1.46,1.62-.61.38-1.29.58-2.05.58-.65,0-1.23-.13-1.73-.4-.49-.27-.89-.6-1.2-1.01v5.49h-2.24v-13.09h2.24v1.28ZM78.26,40.54c0-.53-.11-.99-.34-1.38-.21-.39-.5-.69-.86-.9-.35-.2-.74-.3-1.15-.3s-.79.11-1.15.32c-.35.2-.64.5-.86.9-.21.39-.32.86-.32,1.39s.11,1,.32,1.39c.22.39.51.7.86.91.36.2.75.3,1.15.3s.8-.11,1.15-.32c.36-.21.65-.52.86-.91.22-.39.34-.86.34-1.41ZM84.41,37.42c.29-.41.68-.74,1.18-1.01.51-.28,1.09-.42,1.74-.42.76,0,1.44.19,2.05.56.62.37,1.1.91,1.46,1.6.36.68.54,1.48.54,2.38s-.18,1.71-.54,2.42c-.35.69-.84,1.23-1.46,1.62-.61.38-1.29.58-2.05.58-.65,0-1.23-.13-1.73-.4-.49-.27-.89-.6-1.2-1.01v5.49h-2.24v-13.09h2.24v1.28ZM89.1,40.54c0-.53-.11-.99-.34-1.38-.21-.39-.5-.69-.86-.9-.35-.2-.74-.3-1.15-.3s-.79.11-1.15.32c-.35.2-.64.5-.86.9-.21.39-.32.86-.32,1.39s.11,1,.32,1.39c.22.39.51.7.86.91.36.2.75.3,1.15.3s.8-.11,1.15-.32c.36-.21.65-.52.86-.91.22-.39.34-.86.34-1.41ZM100.69,45.11c-.78,0-1.48-.13-2.11-.4-.62-.27-1.11-.65-1.47-1.15-.36-.5-.55-1.09-.56-1.78h2.4c.03.46.19.82.48,1.09.3.27.7.4,1.22.4s.93-.12,1.23-.37c.3-.26.45-.59.45-.99,0-.33-.1-.6-.3-.82-.2-.21-.46-.38-.77-.5-.3-.13-.72-.27-1.25-.42-.73-.21-1.32-.42-1.78-.62-.45-.21-.84-.53-1.17-.94-.32-.43-.48-.99-.48-1.7,0-.66.17-1.24.5-1.73.33-.49.79-.86,1.39-1.12.6-.27,1.28-.4,2.05-.4,1.15,0,2.08.28,2.8.85.73.55,1.12,1.33,1.2,2.34h-2.46c-.02-.38-.19-.7-.5-.94-.3-.26-.7-.38-1.2-.38-.44,0-.79.11-1.06.34-.26.22-.38.55-.38.98,0,.3.1.55.29.75.2.19.45.35.74.48.3.12.71.26,1.25.42.72.21,1.32.43,1.78.64.46.21.85.53,1.18.96.33.43.5.99.5,1.68,0,.6-.15,1.15-.46,1.66-.31.51-.76.92-1.36,1.23-.6.3-1.31.45-2.13.45ZM109.19,37.98v4.29c0,.3.07.52.21.66.15.13.39.19.74.19h1.04v1.89h-1.41c-1.89,0-2.83-.92-2.83-2.75v-4.27h-1.06v-1.84h1.06v-2.19h2.26v2.19h1.98v1.84h-1.98ZM116.72,45.14c-.85,0-1.62-.19-2.3-.56-.68-.38-1.22-.92-1.62-1.62-.38-.69-.58-1.49-.58-2.4s.2-1.71.59-2.4c.4-.69.95-1.23,1.65-1.6.69-.38,1.47-.58,2.32-.58s1.63.19,2.32.58c.69.37,1.24.91,1.63,1.6.41.69.61,1.49.61,2.4s-.21,1.71-.62,2.4c-.41.69-.96,1.23-1.66,1.62-.69.37-1.47.56-2.34.56ZM116.72,43.19c.4,0,.78-.1,1.14-.29.36-.2.65-.5.86-.9.21-.39.32-.87.32-1.44,0-.84-.22-1.49-.67-1.94-.44-.46-.98-.69-1.62-.69s-1.18.23-1.62.69c-.43.45-.64,1.09-.64,1.94s.21,1.49.62,1.95c.43.45.96.67,1.6.67ZM125.23,37.51c.29-.47.66-.84,1.12-1.1.47-.27,1-.4,1.6-.4v2.35h-.59c-.7,0-1.24.17-1.6.5-.35.33-.53.91-.53,1.73v4.42h-2.24v-8.86h2.24v1.38ZM137.7,40.38c0,.32-.02.61-.06.86h-6.48c.05.64.28,1.14.67,1.5.39.36.88.54,1.46.54.83,0,1.42-.36,1.78-1.07h2.42c-.26.85-.75,1.56-1.47,2.11-.73.54-1.62.82-2.67.82-.85,0-1.62-.19-2.3-.56-.67-.38-1.2-.92-1.58-1.62-.37-.69-.56-1.49-.56-2.4s.19-1.72.56-2.42c.37-.69.9-1.23,1.57-1.6.67-.37,1.45-.56,2.32-.56s1.59.18,2.26.54c.67.36,1.19.88,1.55,1.55.37.66.56,1.42.56,2.29ZM135.38,39.74c-.01-.58-.22-1.03-.62-1.38-.41-.35-.9-.53-1.49-.53-.56,0-1.02.17-1.41.51-.37.33-.6.79-.69,1.39h4.21Z"></path></svg>