<svg xmlns="http://www.w3.org/2000/svg" id="Layer_1" viewBox="0 0 180 64"><defs><style>.cls-1{fill:#fff;}.cls-2{fill:#333;}</style></defs><rect class="cls-2" width="180" height="64" rx="12" ry="12" shape-rendering="crispEdges"></rect><path class="cls-1" d="M44.06,33.89c1.43-.84,1.43-2.94,0-3.78l-3.71-2.18-4.41,4.07,4.41,4.07,3.71-2.18Z"></path><path class="cls-1" d="M39.11,36.8l-4.19-3.86-9.01,8.32c.28,1.42,1.87,2.22,3.17,1.45l10.03-5.91Z"></path><path class="cls-1" d="M25.88,39.42v-14.84l8.04,7.42-8.04,7.42Z"></path><path class="cls-1" d="M25.92,22.75l9.01,8.32,4.19-3.86-10.03-5.91c-1.3-.76-2.89.04-3.17,1.45Z"></path><path class="cls-1" d="M64.44,24.05c-.18-.35-.43-.61-.75-.78-.32-.18-.69-.27-1.11-.27-.46,0-.87.1-1.23.31-.36.21-.64.5-.85.88-.2.38-.3.82-.3,1.32s.1.94.3,1.33c.21.38.49.67.85.88s.77.31,1.23.31c.62,0,1.12-.17,1.51-.52.39-.35.62-.82.71-1.41h-2.61v-.91h3.83v.89c-.07.54-.27,1.04-.58,1.49-.31.45-.71.82-1.21,1.09-.49.27-1.04.4-1.65.4-.65,0-1.25-.15-1.79-.45-.54-.31-.97-.73-1.29-1.27-.31-.54-.47-1.15-.47-1.83s.16-1.29.47-1.83c.32-.54.75-.96,1.29-1.26.55-.31,1.14-.46,1.79-.46.74,0,1.4.18,1.97.55.58.36,1,.87,1.26,1.54h-1.37ZM68.28,22.97v2.04h2.4v.93h-2.4v2.13h2.7v.93h-3.84v-6.96h3.84v.93h-2.7ZM76.88,22.05v.93h-1.85v6.02h-1.14v-6.02h-1.86v-.93h4.85ZM81.77,22.05v6.95h-1.14v-6.95h1.14ZM87.75,22.05v.93h-1.85v6.02h-1.14v-6.02h-1.86v-.93h4.85ZM94.68,29.07c-.65,0-1.24-.15-1.79-.45-.54-.31-.97-.73-1.29-1.27-.31-.55-.47-1.16-.47-1.84s.16-1.29.47-1.83c.32-.54.75-.96,1.29-1.26.55-.31,1.14-.46,1.79-.46s1.25.15,1.79.46c.55.3.98.72,1.29,1.26.31.54.47,1.15.47,1.83s-.16,1.29-.47,1.84c-.31.54-.74.96-1.29,1.27-.54.3-1.14.45-1.79.45ZM94.68,28.08c.46,0,.87-.1,1.23-.31.36-.21.64-.51.84-.9.21-.39.31-.85.31-1.36s-.1-.96-.31-1.35c-.2-.39-.48-.68-.84-.89-.36-.21-.77-.31-1.23-.31s-.87.1-1.23.31c-.36.21-.64.5-.85.89-.2.39-.3.84-.3,1.35s.1.97.3,1.36c.21.39.49.69.85.9.36.21.77.31,1.23.31ZM105.06,29h-1.14l-3.43-5.19v5.19h-1.14v-6.96h1.14l3.43,5.18v-5.18h1.14v6.96ZM113.64,22.05v.93h-1.85v6.02h-1.14v-6.02h-1.86v-.93h4.85ZM120.35,22.05v6.95h-1.14v-3.04h-3.27v3.04h-1.14v-6.95h1.14v2.98h3.27v-2.98h1.14ZM122.99,22.97v2.04h2.4v.93h-2.4v2.13h2.7v.93h-3.84v-6.96h3.84v.93h-2.7Z"></path><path class="cls-1" d="M67.68,37.19c-.26-.47-.61-.83-1.06-1.07s-.97-.37-1.57-.37c-.66,0-1.25.15-1.76.45-.51.3-.91.73-1.2,1.28s-.43,1.19-.43,1.92.14,1.4.43,1.95c.3.55.71.98,1.23,1.28.52.3,1.13.45,1.82.45.85,0,1.55-.22,2.1-.67.54-.46.9-1.09,1.07-1.9h-3.84v-1.71h6.05v1.95c-.15.78-.47,1.5-.96,2.16s-1.13,1.19-1.9,1.6c-.77.39-1.63.59-2.59.59-1.08,0-2.05-.24-2.93-.72-.86-.49-1.55-1.17-2.05-2.03-.49-.86-.74-1.85-.74-2.94s.25-2.08.74-2.94c.5-.87,1.18-1.55,2.05-2.03.87-.49,1.85-.74,2.91-.74,1.26,0,2.35.31,3.28.93.93.61,1.57,1.47,1.92,2.58h-2.58ZM76.13,45.14c-.85,0-1.62-.19-2.3-.56-.68-.38-1.22-.92-1.62-1.62-.38-.69-.58-1.49-.58-2.4s.2-1.71.59-2.4c.41-.69.95-1.23,1.65-1.6.69-.38,1.47-.58,2.32-.58s1.63.19,2.32.58c.69.37,1.24.91,1.63,1.6.41.69.61,1.49.61,2.4s-.21,1.71-.62,2.4c-.41.69-.96,1.23-1.66,1.62-.69.37-1.47.56-2.34.56ZM76.13,43.19c.41,0,.78-.1,1.14-.29.36-.2.65-.5.86-.9.21-.39.32-.87.32-1.44,0-.84-.22-1.49-.67-1.94-.44-.46-.98-.69-1.62-.69s-1.18.23-1.62.69c-.43.45-.64,1.09-.64,1.94s.21,1.49.62,1.95c.43.45.96.67,1.6.67ZM86.33,45.14c-.85,0-1.62-.19-2.3-.56-.68-.38-1.22-.92-1.62-1.62-.38-.69-.58-1.49-.58-2.4s.2-1.71.59-2.4c.41-.69.95-1.23,1.65-1.6.69-.38,1.47-.58,2.32-.58s1.63.19,2.32.58c.69.37,1.24.91,1.63,1.6.4.69.61,1.49.61,2.4s-.21,1.71-.62,2.4c-.41.69-.96,1.23-1.66,1.62-.69.37-1.47.56-2.34.56ZM86.33,43.19c.41,0,.78-.1,1.14-.29.36-.2.65-.5.86-.9.21-.39.32-.87.32-1.44,0-.84-.22-1.49-.67-1.94-.44-.46-.98-.69-1.62-.69s-1.18.23-1.62.69c-.43.45-.64,1.09-.64,1.94s.21,1.49.62,1.95c.43.45.96.67,1.6.67ZM96.07,35.99c.66,0,1.24.13,1.74.4.5.26.9.59,1.18,1.01v-1.26h2.26v8.93c0,.82-.17,1.55-.5,2.19-.33.65-.83,1.16-1.49,1.54-.66.38-1.46.58-2.4.58-1.26,0-2.29-.29-3.1-.88-.8-.59-1.25-1.39-1.36-2.4h2.22c.12.41.37.73.75.96.4.25.87.37,1.42.37.65,0,1.18-.2,1.58-.59.41-.38.61-.97.61-1.76v-1.38c-.29.42-.69.76-1.2,1.04-.5.28-1.08.42-1.73.42-.75,0-1.43-.19-2.05-.58-.62-.38-1.11-.92-1.47-1.62-.35-.7-.53-1.51-.53-2.42s.18-1.69.53-2.38c.36-.69.85-1.23,1.46-1.6.62-.37,1.31-.56,2.06-.56ZM99,40.57c0-.54-.11-1.01-.32-1.39-.21-.39-.5-.69-.86-.9-.36-.21-.75-.32-1.17-.32s-.8.1-1.15.3c-.35.2-.64.5-.86.9-.21.38-.32.84-.32,1.38s.11,1,.32,1.41c.22.39.51.7.86.91.36.21.75.32,1.15.32s.81-.1,1.17-.3c.36-.21.65-.51.86-.9.21-.39.32-.86.32-1.41ZM105.68,33.16v11.84h-2.24v-11.84h2.24ZM116.13,40.38c0,.32-.02.61-.06.86h-6.48c.05.64.28,1.14.67,1.5.39.36.88.54,1.46.54.83,0,1.42-.36,1.78-1.07h2.42c-.26.85-.75,1.56-1.47,2.11-.72.54-1.62.82-2.67.82-.85,0-1.62-.19-2.3-.56-.67-.38-1.2-.92-1.58-1.62-.37-.69-.56-1.49-.56-2.4s.19-1.72.56-2.42c.37-.69.9-1.23,1.57-1.6.67-.37,1.44-.56,2.32-.56s1.6.18,2.26.54c.67.36,1.19.88,1.55,1.55.37.66.56,1.42.56,2.29ZM113.81,39.74c-.01-.58-.22-1.03-.62-1.38-.41-.35-.9-.53-1.49-.53-.55,0-1.02.17-1.41.51-.37.33-.6.79-.69,1.39h4.21ZM129.73,37.29c0,.6-.14,1.16-.43,1.68-.28.52-.72.94-1.33,1.26-.6.32-1.35.48-2.27.48h-1.87v4.29h-2.24v-11.17h4.11c.86,0,1.6.15,2.21.45.61.3,1.06.71,1.36,1.23.31.52.46,1.11.46,1.78ZM125.6,38.9c.62,0,1.08-.14,1.38-.42.3-.29.45-.69.45-1.2,0-1.09-.61-1.63-1.82-1.63h-1.78v3.25h1.78ZM133.55,33.16v11.84h-2.24v-11.84h2.24ZM135.19,40.54c0-.9.18-1.69.53-2.38.36-.69.85-1.23,1.46-1.6.62-.37,1.31-.56,2.06-.56.66,0,1.24.13,1.73.4.5.27.9.6,1.2,1.01v-1.26h2.26v8.86h-2.26v-1.3c-.29.42-.69.76-1.2,1.04-.5.27-1.08.4-1.74.4-.75,0-1.43-.19-2.05-.58-.61-.38-1.09-.92-1.46-1.62-.35-.7-.53-1.51-.53-2.42ZM142.17,40.57c0-.54-.11-1.01-.32-1.39-.21-.39-.5-.69-.86-.9-.36-.21-.75-.32-1.17-.32s-.8.1-1.15.3-.64.5-.86.9c-.21.38-.32.84-.32,1.38s.11,1,.32,1.41c.22.39.51.7.86.91.36.21.75.32,1.15.32s.81-.1,1.17-.3c.36-.21.65-.51.86-.9.21-.39.32-.86.32-1.41ZM155.09,36.14l-5.49,13.06h-2.38l1.92-4.42-3.55-8.64h2.51l2.29,6.19,2.32-6.19h2.38Z"></path></svg>